<?xml version="1.0" encoding="utf-8"?>
<!-- Generator: Adobe Illustrator 17.0.0, SVG Export Plug-In . SVG Version: 6.00 Build 0)  -->
<!DOCTYPE svg PUBLIC "-//W3C//DTD SVG 1.1//EN" "http://www.w3.org/Graphics/SVG/1.1/DTD/svg11.dtd">
<svg version="1.1" id="Layer_1" xmlns="http://www.w3.org/2000/svg" xmlns:xlink="http://www.w3.org/1999/xlink" x="0px" y="0px"
	 width="250px" height="150px" viewBox="0 0 250 150" enable-background="new 0 0 250 150" xml:space="preserve">
<g>
	<g>
		<path fill="#218441" d="M243.267,79.528c1.128-3.925,0.23-3.474-2.32-5.577c-2.911-2.4-3.142-1.735-3.769,1.017
			c0,0-0.558-3.562-4.776-4.689c-4.035-1.078-9.069,0.904-11.083,5.071c-1.88,3.89-2.982,7.52-3.62,11.912
			c-0.596,1.16-1.781,3.642-4.412,3.717c-3.392,0.096-2.297-4.609-1.769-6.746c0.813-3.291,1.589-7.001,3.601-9.657
			c1.992-2.631,2.334-5.655-0.054-6.189c-3.751-0.839-8.554,3.152-12.458,0.879c0,0,1.232-3.026-1.737-4.048
			c-2.693-0.926-5.479,1.426-4.634,4.618c0.416,1.569,1.233,2.571,2.258,3.148c-0.881,3.42-2.308,6.306-4.438,8.988
			c-3.191,4.019-8.827,6.703-13.385,3.82c-2.171-1.372-4.113-4.504-3.927-7.233c0.007-0.102,0.099-0.166,0.197-0.141
			c3.361,0.877,7.181,0.408,10.595-0.077c5.226-0.743,4.281-0.428,4.466-3.101c0.337-4.88-1.438-9.606-5.48-12.013
			c-4.083-2.432-10.111-1.576-12.804,2.411c-1.378,2.039-2.666,4.486-3.315,7.123c-1.494-0.557-3.279-0.19-3.959-0.126
			c0.403-2.682-0.139-6.405-1.661-8.55c-2.242-3.159-6.744-3.308-9.469-1.07c-2.898,2.381-3.377,7.662-1.272,10.814
			c1.978,2.962,5.681,4.144,8.769,2.946c0,0-0.49,5.113-3.285,6.283c-6.047,2.531-10.48-3.758-9.948-10.228
			c0.277-3.372,0.385-5.849,0.519-7.611c3.247-5.493,6.467-11.1,9.66-16.538c0.064-0.11,0.13-0.224,0.191-0.336
			c0.061-0.111,0.097-0.17,0.097-0.17c-0.004,0-0.006,0-0.01,0c0.272-0.541,0.477-1.14,0.596-1.804
			c0.781-4.363-2.64-7.226-6.25-7.321c-3.641-0.096-7.568,2.88-8.871,6.52c-1.201,3.355-1.238,7.559-1.417,11.181
			c-0.265,5.378-0.679,10.904-0.921,16.362c-0.652,1.3-2.091,4.053-2.834,5.001c0,0-0.303-2.921-3.196-5.254
			c-2.827-2.28-5.757-3.803-8.34-6.632c0,0,2.565-1.575,2.231-4.733c-0.197-1.861-1.333-2.711-2.936-3.2
			c-3.037-0.926-6.817,0.327-7.504,4.087c-0.429,2.343,0.499,4.49,2.912,5.963c-1.05,3.156-2.036,6.434-3.204,9.448
			c-0.823,2.122-3.888,6.987-5.842,5.102c-2.674-2.578-1.59-10.505-1.553-14.852c0.02-2.295,0.142-3.919,0.008-4.898
			c-0.185-1.35-2.566-1.65-3.939-2.388c-1.523-0.819-2.631-0.66-2.587,0.797c0.119,3.939,0.42,8.049,0.51,11.965
			c0.069,2.971-0.062,6.203-1.86,8.607c-1.861,2.488-4.412,1.16-5.026-1.059c-1.377-4.979-0.914-11.347-0.986-16.865
			c-0.021-1.57-0.119-1.938-1.752-2.724c-0.437-0.21-0.817-0.471-1.41-0.718c-3.166-1.322-3.728-0.337-3.663,0.688
			c0.325,5.162,0.507,10.428,0.698,15.634c0.081,2.199,0.305,4.463,0.768,6.258c-0.505,0.814-1.462,1.824-2.734,2.564
			c-2.656,1.545-4.382-1.45-4.639-3.997c-0.514-5.107-0.484-10.86-0.172-16.166c0.164-2.786-0.722-2.494-3.605-3.644
			c-3.008-1.2-3.472-0.529-3.304,2.444c0,0-1.556-3.123-5.834-2.922c-4.237,0.199-8.245,4.234-9.242,8.424
			c-1.023,4.3-0.95,8.345-0.265,12.948c-0.021,0.08-0.104,0.389-0.258,0.854c-0.564,1.408-1.661,3.296-3.598,4
			c-3.174,1.153-3.984-3.019-4.068-5.549c-0.119-3.561-0.344-7.361,0.56-10.775c0.867-3.274,0.615-5.713-1.352-5.601
			c-3.199,0.182-6.489,5.49-10.324,4.588c0,0,0.386-3.293-2.724-3.313c-2.819-0.018-4.844,3.109-3.224,5.913
			c1.408,2.437,4.091,2.784,6.354,1.816c2.323-0.994,4.271-3.627,5.391-2.992c0.841,0.476,0.175,2.198-0.071,5.329
			c-0.329,4.197-1.09,9.4,2.059,12.616c2.23,2.277,4.163,2.541,5.568,2.326c-0.697,0.553-1.468,1.041-2.323,1.419
			c-7.46,3.296-15.714-1.636-20.405-8c-2.393-3.246-4.665-6.802-6.533-10.494c-0.159-0.313-0.144-0.691,0.035-1.007
			c1.739-3.087,3.142-6.474,4.322-9.802c2.018-5.693,4.817-10.764,10.338-12.953c2.523-1,3.241-0.059,3.403,0.853
			c0.094,0.527,0.767,0.729,1.187,0.364c1.843-1.599,1.464-3.752,0.236-5.362c-3.12-4.09-9.576-0.988-12.976,1.161
			c-6.861,4.337-8.432,15.307-10.962,22.862c-1.087,3.245-2.36,6.893-4.734,9.312c-0.31,0.316-0.84,0.167-0.92-0.264
			c-0.987-5.291-1.974-10.583-2.961-15.874c-0.364-1.954-0.448-3.18-0.803-5.686c-0.31-2.192-1.146-4.116-3.525-2.957
			c-1.822,0.888-6.321,2.846-5.099,6.06c0.526,1.384,1.618,1.873,2.074,3.751c1.534,6.323,2.946,12.691,4.31,19.066
			c0.539,2.462,0.809,3.692,1.347,6.154c0.602,3.036,1.204,6.073,1.805,9.109c0.804,4.059,0.522,5.294,1.868,5.644
			c8.322,2.163,4.945-4.368,3.75-10.724c-0.332-1.766-0.669-3.303-1-5.073c-0.341-1.827-0.511-2.741-0.852-4.568
			c-0.073-0.391,0.106-0.796,0.448-1.008c1.213-0.749,2.369-1.706,3.466-2.823c0.402-0.409,1.063-0.332,1.343,0.148
			c2.942,5.054,6.813,9.407,10.813,13.32c10.98,10.743,22.224,1.911,28.945-9.756c0.003,0.006,0.004,0.01,0.007,0.016
			c1.86,3.111,4.808,5.787,8.278,5.94c3.135,0.138,6.16-2.093,7.815-4.943c0,0,1.567,3.093,4.793,3.934
			c3.289,0.858,7.37-0.946,8.86-4.586c1.2,2.515,3.675,3.868,6.165,3.288c2.637-0.615,5.003-2.528,6.889-4.7
			c5.17,5.711,9.727,5.049,13.094-2.082c1.836-3.888,3.128-8.177,4.436-12.328c0.819,0.746,1.749,1.564,2.766,2.527
			c1.846,1.748,8.95,7.585,5.682,10.765c-2.262,2.201-5.83,0.025-7.852-1.831c-0.873-0.802-2.413,1.257-2.942,2.301
			c-0.529,1.043-0.71,2.038,1.086,3.109c3.107,1.852,7.461,3.37,10.959,1.934c4.357-1.789,6.766-6.867,8.493-11.344
			c-0.072,3.957,1.789,8.244,4.634,10.237c3.966,2.778,9.301,3.492,13.294-0.311c2.881-2.743,4.12-7.085,4.704-11.225
			c1.84-0.635,3.873,0.268,3.873,0.268c-0.054,4.598,1.026,10.618,4.687,13.387c5.763,4.357,12.817,2.501,17.637-1.537
			c4.248-3.558,6.894-8.8,9.581-14.269c0.039-0.002,0.079-0.001,0.117-0.004c1.835-0.175,6.063-1.754,6.964-0.39
			c0.549,0.832-0.509,2.657-1.552,5.62c-1.336,3.797-2.838,8.919-1.11,12.845c1.226,2.785,4.061,4.43,6.674,3.203
			c2.114-0.992,3.68-2.746,5.225-4.798c0.949,3.553,3.011,7.194,6.328,8.211c2.349,0.72,4.921,0.337,7.078-1.042
			c-1.64,7.255-3.381,14.629-4.61,21.857c-0.684,4.02-5.108,4.94-7.508,2.843c-1.861-1.626-2.018-5.213-0.286-7.182
			c1.964-2.232,7.12-5.366,6.922-7.811c-0.128-1.581-1.346-3.922-2.953-4.371c-2.905-0.813-5.744,3.311-7.499,5.641
			c-3.191,4.238-3.519,8.536-1.919,13.479c2.031,6.276,11.116,9.417,16.412,5.501c4.207-3.11,4.365-8.459,5.102-13.509
			c0.966-6.626,2.72-13.305,4.371-19.853C240.684,89.074,241.906,84.266,243.267,79.528z M79.919,75.824
			c0.083,2.741-0.616,5.587-1.981,7.731c-3.693,5.8-8.014-2.555-8.067-6.703c-0.051-4.069,1.501-12.258,6.52-9.502
			C78.899,68.727,79.829,72.811,79.919,75.824z M150.583,59.86c0.092-0.869,0.397-3.104,0.515-3.968
			c0.35-2.557,0.365-5.472,1.309-7.795c0.839-2.065,4.632-4.433,5.414-0.892c0.109,0.494,0.031,1.117-0.12,1.722
			c-2.058,4.373-4.772,8.388-7.277,12.45C150.48,60.818,150.532,60.346,150.583,59.86z M157.495,71.752
			c0.051-0.968,0.968-2.648,3.198-1.934c2.23,0.714,2.403,3.44,2.403,3.44C159.482,75.202,157.444,72.719,157.495,71.752z
			 M177.279,70.382c0.631-2.246,2.162-4.021,5.242-3.455c2.056,0.378,3.387,4.484,3.508,5.995c0.153,1.901-0.036,1.889-3.44,2.253
			c-3.03,0.325-4.76-0.028-5.874-0.378C176.793,73.875,176.793,72.109,177.279,70.382z M234.95,85.983
			c-0.638,2.675-1.868,5.915-4.12,7.188c-5.465,3.089-6.936-4.985-6.068-9.511c0.851-4.435,4.652-11.1,9.027-6.924
			C235.978,78.824,235.619,83.181,234.95,85.983z"/>
	</g>
	<g>
		<path fill="#173A1D" d="M71.111,112.993c-0.446-0.03-0.631-0.042-0.694-0.468c-0.05-0.317-0.05-1.623-0.05-2.325
			c0-1.221,0-1.959,0.07-2.498c0.043-0.325,0.144-0.467,0.668-0.507c0.165-0.01,0.248-0.015,0.248-0.206c0-0.05,0-0.166-0.146-0.166
			c-0.083,0-0.326,0.005-0.577,0.01c-0.263,0.005-0.533,0.01-0.632,0.01c-0.087,0-0.341-0.005-0.605-0.009
			c-0.286-0.005-0.584-0.011-0.694-0.011c-0.166,0-0.166,0.11-0.166,0.176c0,0.165,0.137,0.179,0.213,0.186
			c0.523,0.029,0.625,0.154,0.653,0.492c0.02,0.335,0.02,0.565,0.02,2.014h-3.513c0-0.654,0.002-1.518,0.05-2.011
			c0.034-0.304,0.14-0.455,0.653-0.495c0.211-0.011,0.253-0.046,0.253-0.206c0-0.055,0-0.156-0.136-0.156
			c-0.237,0-0.474,0.005-0.711,0.01c-0.236,0.005-0.472,0.01-0.709,0.01c-0.176,0-0.351-0.005-0.526-0.01
			c-0.177-0.005-0.354-0.01-0.53-0.01c-0.08,0-0.166,0.014-0.166,0.186c0,0.146,0.094,0.157,0.247,0.175
			c0.496,0.076,0.6,0.092,0.619,0.833c0.01,0.351,0.01,0.943,0.01,2.122c0,0.863,0,1.937-0.069,2.353
			c-0.05,0.251-0.125,0.447-0.596,0.504c-0.158,0.019-0.23,0.027-0.23,0.143c0,0.161,0.008,0.216,0.166,0.216
			c0.088,0,0.349-0.005,0.616-0.01c0.281-0.005,0.569-0.01,0.672-0.01c0.078,0,0.307,0.005,0.543,0.009
			c0.252,0.005,0.511,0.011,0.604,0.011c0.106,0,0.206,0,0.206-0.166c0-0.143-0.045-0.172-0.161-0.186
			c-0.518-0.041-0.712-0.056-0.766-0.476c-0.039-0.344-0.04-0.687-0.04-2.303c0.829-0.005,1.293-0.007,1.756-0.007
			s0.927,0.002,1.756,0.007c0,1.33-0.001,2.066-0.079,2.374c-0.07,0.265-0.187,0.346-0.578,0.396
			c-0.171,0.019-0.249,0.028-0.249,0.195c0,0.054,0.005,0.086,0.018,0.112c0.011,0.021,0.038,0.057,0.098,0.057
			c0.012,0,0.025-0.001,0.03-0.003c0.026,0,0.066-0.001,0.127-0.003c0.169-0.006,0.519-0.017,1.172-0.017
			c0.67,0,0.95,0.011,1.1,0.017c0.053,0.002,0.088,0.004,0.118,0.004c0.097,0,0.196,0,0.196-0.166
			C71.374,113.022,71.296,113.014,71.111,112.993z"/>
		<path fill="#173A1D" d="M76.833,106.722c-2.438,0-3.548,1.803-3.548,3.478c0,1.579,1.187,3.256,3.387,3.256
			c2.329,0,3.548-1.704,3.548-3.387C80.22,108.098,78.827,106.722,76.833,106.722z M76.541,107.236c1.795,0,2.612,1.604,2.612,3.095
			c0,2.424-1.707,2.612-2.23,2.612c-1.278,0-2.572-1.049-2.572-3.055C74.352,108.606,74.927,107.236,76.541,107.236z"/>
		<path fill="#173A1D" d="M85.921,106.722c-2.438,0-3.548,1.803-3.548,3.478c0,1.579,1.187,3.256,3.387,3.256
			c2.329,0,3.548-1.704,3.548-3.387C89.308,108.098,87.915,106.722,85.921,106.722z M85.629,107.236
			c1.795,0,2.612,1.604,2.612,3.095c0,2.424-1.707,2.612-2.23,2.612c-1.278,0-2.572-1.049-2.572-3.055
			C83.44,108.606,84.015,107.236,85.629,107.236z"/>
		<path fill="#173A1D" d="M96.328,111.503c-0.1,0-0.13,0.099-0.164,0.213c-0.011,0.036-0.023,0.078-0.039,0.124
			c-0.307,0.941-0.843,0.941-2.273,0.941c-0.538,0-0.618-0.016-0.65-0.258c-0.06-0.347-0.06-1.159-0.06-2.505
			c0-0.744,0.021-2.219,0.097-2.475c0.066-0.191,0.146-0.319,0.627-0.359c0.183-0.011,0.233-0.038,0.233-0.206
			c0-0.107-0.059-0.166-0.166-0.166c-0.084,0-0.327,0.01-0.578,0.019c-0.262,0.01-0.532,0.021-0.63,0.021
			c-0.078,0-0.307-0.009-0.542-0.019c-0.252-0.01-0.512-0.021-0.606-0.021c-0.141,0-0.166,0.07-0.166,0.216
			c0,0.122,0.08,0.134,0.417,0.185c0.356,0.061,0.389,0.282,0.398,1.385v0.946c0,1.024-0.009,2.274-0.08,2.859
			c-0.04,0.267-0.081,0.542-0.619,0.589c-0.15,0.012-0.207,0.032-0.207,0.206c0,0.156,0.11,0.176,0.206,0.176
			c0.041,0,0.115-0.004,0.226-0.009c0.323-0.017,0.996-0.051,2.099-0.051c1.357,0,1.825,0.034,2.05,0.051
			c0.079,0.006,0.132,0.01,0.184,0.01c0.139,0,0.171-0.134,0.214-0.32c0.281-1.033,0.284-1.383,0.284-1.386
			C96.584,111.516,96.452,111.503,96.328,111.503z"/>
		<path fill="#173A1D" d="M103.591,107.181c-0.599-0.278-1.296-0.419-2.071-0.419c-0.076,0-0.204,0.005-0.39,0.013
			c-0.473,0.02-1.354,0.057-2.7,0.057c-0.176,0-0.176,0.108-0.176,0.166c0,0.122,0.015,0.204,0.223,0.216
			c0.378,0.02,0.47,0.092,0.515,0.226c0.087,0.272,0.087,0.553,0.087,2.114c0,1.056,0,2.502-0.05,2.859
			c-0.036,0.233-0.072,0.473-0.579,0.552c-0.163,0.027-0.237,0.039-0.237,0.182c0,0.182,0.044,0.206,0.216,0.206
			c0.073,0,0.286-0.005,0.506-0.01c0.233-0.005,0.473-0.01,0.561-0.01c0.272,0,0.543,0.009,0.824,0.019l0.038,0.001
			c0.28,0.01,0.559,0.02,0.839,0.02c0.743,0,1.318-0.088,1.865-0.286c2.029-0.76,2.186-2.589,2.186-3.131
			C105.25,108.983,104.731,107.698,103.591,107.181z M100.026,110.502c0-0.983,0-1.911,0.02-2.505
			c0.01-0.545,0.113-0.596,0.178-0.629c0.248-0.138,0.814-0.153,1.045-0.153c0.878,0,1.44,0.162,1.942,0.559
			c0.902,0.724,0.972,1.924,0.972,2.274c0,1.719-1.199,2.874-2.984,2.874c-1.004,0-1.101-0.221-1.143-0.588
			C100.036,112.119,100.026,112.011,100.026,110.502z"/>
		<path fill="#173A1D" d="M113.96,106.813c-0.068,0-0.264,0.005-0.466,0.01c-0.215,0.005-0.437,0.01-0.52,0.01
			c-0.077,0-0.308-0.005-0.548-0.009c-0.264-0.005-0.54-0.011-0.639-0.011c-0.147,0-0.164,0.062-0.176,0.17
			c-0.016,0.176,0.103,0.193,0.171,0.202c0.39,0.05,0.672,0.086,0.778,0.389c0.167,0.47,0.19,3.213,0.067,3.924
			c-0.035,0.219-0.289,1.314-1.918,1.314c-1.847,0-1.847-1.233-1.847-2.32c0-1.062,0.02-1.883,0.06-2.442
			c0.048-0.787,0.158-0.797,0.698-0.846c0.218-0.019,0.309-0.027,0.309-0.225c0-0.153-0.092-0.166-0.186-0.166
			c-0.079,0-0.312,0.007-0.551,0.015c-0.253,0.008-0.513,0.016-0.606,0.016c-0.216,0-0.431-0.007-0.647-0.015
			c-0.217-0.008-0.435-0.015-0.652-0.015c-0.107,0-0.146,0.053-0.146,0.196c0,0.146,0.096,0.158,0.329,0.186
			c0.432,0.052,0.445,0.097,0.466,1.638c0.007,0.23,0.004,1.126,0.002,1.719l-0.002,0.473c0,0.736,0,2.461,2.582,2.461
			c0.875,0,1.516-0.217,2.017-0.682c0.732-0.679,0.735-1.319,0.746-3.026c0.031-2.373,0.059-2.493,0.613-2.586
			c0.172-0.028,0.243-0.04,0.243-0.223C114.137,106.859,114.084,106.813,113.96,106.813z"/>
		<path fill="#173A1D" d="M118.787,109.737c-1.323-0.581-1.723-0.757-1.723-1.48c0-0.743,0.592-1.082,1.142-1.082
			c1.097,0,1.34,0.668,1.458,0.992c0.075,0.226,0.095,0.287,0.203,0.287c0.123,0,0.247-0.048,0.247-0.156
			c0-0.071-0.013-0.182-0.041-0.362c-0.055-0.356-0.034-0.707-0.024-0.875c0.003-0.046,0.005-0.08,0.005-0.101
			c0-0.066,0-0.176-0.136-0.176c-0.055,0-0.084,0.011-0.122,0.024c-0.009,0.003-0.018,0.008-0.025,0.015
			c-0.008,0.008-0.011,0.011-0.034,0.011c-0.016,0-0.076-0.008-0.166-0.019c-0.095-0.011-0.22-0.026-0.363-0.042l-0.169-0.013
			c-0.237-0.018-0.506-0.038-0.711-0.038c-1.35,0-2.189,0.696-2.189,1.817c0,0.164,0,0.663,0.463,1.104
			c0.29,0.28,0.392,0.331,1.397,0.788c1.075,0.482,1.451,0.71,1.451,1.37c0,0.662-0.531,1.142-1.263,1.142
			c-1.609,0-1.867-1.05-1.908-1.374c-0.017-0.103-0.069-0.156-0.155-0.156c-0.157,0-0.267,0.093-0.267,0.227
			c0,0.394,0.099,1.15,0.136,1.435l0.008,0.062c0.028,0.184,0.039,0.26,0.193,0.26c0.074,0,0.116-0.035,0.147-0.06
			c0.026-0.021,0.038-0.03,0.064-0.03c0.057,0,0.162,0.016,0.296,0.037c0.296,0.045,0.743,0.114,1.305,0.114
			c1.057,0,1.545-0.272,1.821-0.476c0.401-0.298,0.64-0.795,0.64-1.331C120.467,110.468,119.496,110.045,118.787,109.737z"/>
		<path fill="#173A1D" d="M128.402,106.752c-0.032,0-0.06,0.014-0.096,0.031c-0.038,0.018-0.085,0.041-0.151,0.052
			c-0.216,0.052-2.219,0.069-3.155,0.069c-0.328,0-1.602-0.01-1.966-0.04c-0.196-0.021-0.242-0.03-0.307-0.063
			c-0.097-0.054-0.108-0.059-0.183-0.059c-0.116,0-0.141,0.096-0.176,0.228l-0.009,0.034c-0.073,0.309-0.233,1.051-0.233,1.243
			c0,0.05,0.018,0.166,0.186,0.166c0.06,0,0.171,0,0.214-0.108c0.214-0.745,0.247-0.859,2.127-0.859l0.172,0
			c0.029,1.432,0.007,2.841-0.022,4.167c-0.03,1.179-0.032,1.276-0.81,1.361c-0.19,0.019-0.276,0.027-0.276,0.205
			c0,0.092,0.021,0.186,0.176,0.186c0.116,0,0.426-0.008,0.736-0.015c0.309-0.008,0.618-0.015,0.733-0.015
			c0.461,0,0.726,0.011,0.938,0.02c0.133,0.006,0.242,0.01,0.36,0.01c0.112,0,0.216-0.02,0.216-0.166c0-0.065,0-0.146-0.071-0.192
			c-0.039-0.015-0.137-0.026-0.282-0.041c-0.051-0.005-0.094-0.01-0.115-0.013c-0.649-0.113-0.649-0.113-0.649-2.351
			c0-0.558,0.009-2.377,0.038-3.156h1.152c0.626,0.031,0.832,0.07,0.875,0.408c0.011,0.066,0.005,0.14-0.002,0.218
			c-0.005,0.053-0.009,0.108-0.009,0.164c0,0.166,0.141,0.166,0.216,0.166c0.135,0,0.182-0.048,0.224-0.229
			c0.003-0.011,0.304-1.106,0.304-1.306C128.558,106.752,128.457,106.752,128.402,106.752z"/>
		<path fill="#173A1D" d="M135.175,111.544c-0.075,0-0.11,0.087-0.189,0.301c-0.025,0.069-0.05,0.136-0.071,0.178
			c-0.299,0.607-0.629,0.809-1.995,0.809c-0.581,0-0.768-0.009-0.885-0.073c-0.132-0.07-0.136-0.119-0.136-2.594l0.302,0.003
			c0.703,0.007,0.94,0.009,1.2,0.027c0.507,0.02,0.806,0.131,0.833,0.644c0.011,0.153,0.044,0.222,0.206,0.222
			c0.056,0,0.186,0,0.186-0.156l0-0.1c-0.03-0.217-0.03-0.573-0.03-0.786c0-0.137,0.008-0.33,0.016-0.512
			c0.007-0.166,0.014-0.323,0.014-0.424c0-0.106,0-0.227-0.176-0.227c-0.162,0-0.175,0.08-0.196,0.211
			c-0.032,0.377-0.106,0.543-0.486,0.595c-0.176,0.02-0.266,0.029-1.87,0.03v-2.088c0-0.158,0.016-0.197,0.023-0.208
			c0.01-0.008,0.13-0.079,1.099-0.079c1.595,0,1.608,0.194,1.657,0.926c0.019,0.185,0.028,0.262,0.225,0.262
			c0.059,0,0.196,0,0.196-0.156c0-0.315,0.011-0.565,0.039-0.887l0.016-0.096c0.029-0.174,0.055-0.336,0.055-0.396
			c0-0.156-0.131-0.156-0.247-0.156l-0.092,0l-0.383,0.01c-0.262,0.01-2.548,0.03-2.746,0.03c-0.092,0-0.368-0.007-0.654-0.014
			c-0.309-0.008-0.63-0.016-0.745-0.016c-0.11,0-0.166,0.063-0.166,0.186c0,0.171,0.087,0.186,0.179,0.186h0.002
			c0.4,0.032,0.497,0.058,0.536,0.243c0.022,0.083,0.058,0.523,0.058,2.53c0,0.561,0,2.05-0.04,2.48
			c-0.045,0.482-0.171,0.495-0.64,0.545c-0.139,0.012-0.196,0.032-0.196,0.196c0,0.157,0.073,0.186,0.217,0.186
			c0.082,0,0.289-0.01,0.535-0.022c0.356-0.017,0.799-0.039,1.055-0.039c0.643,0,1.66,0.027,2.334,0.044
			c0.356,0.009,0.626,0.016,0.715,0.016c0.13,0,0.16-0.101,0.192-0.209l0.012-0.039c0.07-0.231,0.305-1.233,0.305-1.418
			C135.442,111.544,135.255,111.544,135.175,111.544z"/>
		<path fill="#173A1D" d="M142.401,111.544c-0.075,0-0.11,0.087-0.189,0.301c-0.025,0.069-0.05,0.136-0.071,0.178
			c-0.299,0.607-0.629,0.809-1.995,0.809c-0.581,0-0.768-0.009-0.885-0.073c-0.132-0.07-0.136-0.119-0.136-2.594l0.302,0.003
			c0.703,0.007,0.94,0.009,1.2,0.027c0.507,0.02,0.806,0.131,0.833,0.644c0.011,0.153,0.044,0.222,0.206,0.222
			c0.056,0,0.186,0,0.186-0.156l0-0.1c-0.03-0.217-0.03-0.573-0.03-0.786c0-0.137,0.008-0.33,0.016-0.512
			c0.007-0.166,0.014-0.323,0.014-0.424c0-0.106,0-0.227-0.176-0.227c-0.162,0-0.175,0.08-0.196,0.211
			c-0.032,0.377-0.106,0.543-0.486,0.595c-0.176,0.02-0.266,0.029-1.87,0.03v-2.088c0-0.158,0.016-0.197,0.023-0.208
			c0.01-0.008,0.13-0.079,1.099-0.079c1.595,0,1.608,0.194,1.657,0.926c0.019,0.185,0.028,0.262,0.225,0.262
			c0.059,0,0.196,0,0.196-0.156c0-0.315,0.011-0.565,0.039-0.887l0.016-0.096c0.029-0.174,0.055-0.336,0.055-0.396
			c0-0.156-0.131-0.156-0.247-0.156l-0.092,0l-0.383,0.01c-0.262,0.01-2.548,0.03-2.746,0.03c-0.092,0-0.368-0.007-0.654-0.014
			c-0.309-0.008-0.63-0.016-0.745-0.016c-0.11,0-0.166,0.063-0.166,0.186c0,0.171,0.087,0.186,0.179,0.186h0.002
			c0.4,0.032,0.497,0.058,0.536,0.243c0.022,0.083,0.058,0.523,0.058,2.53c0,0.561,0,2.05-0.04,2.48
			c-0.045,0.482-0.171,0.495-0.64,0.545c-0.139,0.012-0.196,0.032-0.196,0.196c0,0.157,0.073,0.186,0.217,0.186
			c0.082,0,0.289-0.01,0.535-0.022c0.356-0.017,0.799-0.039,1.055-0.039c0.643,0,1.66,0.027,2.334,0.044
			c0.356,0.009,0.626,0.016,0.715,0.016c0.13,0,0.16-0.101,0.192-0.209l0.012-0.039c0.07-0.231,0.305-1.233,0.305-1.418
			C142.668,111.544,142.481,111.544,142.401,111.544z"/>
		<path fill="#173A1D" d="M151.812,106.823c-0.249,0-0.501,0.003-0.734,0.006c-0.2,0.002-0.386,0.004-0.544,0.004
			c-0.182,0-0.39-0.002-0.596-0.005c-0.204-0.003-0.406-0.005-0.581-0.005c-0.129,0-0.176,0.051-0.176,0.186
			c0,0.133,0.048,0.176,0.192,0.176h0c0.818,0.049,0.868,0.227,0.915,0.836c0.029,0.358,0.03,1.836,0.03,3.575
			c-0.275-0.31-0.783-0.859-1.359-1.482c-1.079-1.166-2.422-2.617-2.811-3.128c-0.059-0.079-0.115-0.153-0.223-0.153h-0.07
			c-0.056,0-0.123,0.002-0.2,0.004c-0.103,0.003-0.225,0.006-0.364,0.006c-0.165,0-0.421-0.005-0.581-0.008
			c-0.074-0.001-0.128-0.002-0.143-0.002c-0.138,0-0.186,0.051-0.186,0.196c0,0.159,0.101,0.168,0.301,0.186
			c0.766,0.075,0.766,0.626,0.766,1.626c0,1.44-0.034,2.508-0.1,3.175c-0.06,0.678-0.19,0.844-0.73,0.938
			c-0.178,0.028-0.267,0.042-0.267,0.206c0,0.171,0.074,0.206,0.186,0.206c0.046,0,0.207-0.004,0.382-0.009
			c0.205-0.005,0.428-0.011,0.504-0.011c0.118,0,0.454,0.005,0.796,0.01c0.357,0.005,0.721,0.01,0.855,0.01
			c0.125,0,0.176-0.057,0.176-0.196c0-0.175-0.087-0.186-0.284-0.196c-0.77-0.038-0.818-0.354-0.864-0.659
			c-0.043-0.298-0.059-2.233-0.06-4.009l0.053,0.062c0.251,0.297,0.449,0.532,0.881,0.981c2.363,2.504,2.855,3.026,3.445,3.866
			c0.123,0.192,0.188,0.272,0.266,0.272c0.059,0,0.307-0.086,0.307-0.216c0-0.032-0.012-0.086-0.034-0.18
			c-0.015-0.067-0.032-0.137-0.037-0.18c-0.03-0.275-0.05-0.821-0.05-1.392c0-1.487,0.031-2.491,0.1-3.255
			c0.079-0.757,0.146-0.917,0.761-1.043c0.174-0.037,0.246-0.052,0.246-0.232C151.978,106.873,151.928,106.823,151.812,106.823z"/>
		<path fill="#173A1D" d="M155.419,109.476c0.01-2.197,0.076-2.261,0.78-2.27c0.19,0,0.267-0.019,0.267-0.207
			c0-0.087-0.018-0.176-0.156-0.176c-0.198,0-1.119,0.01-1.329,0.02c-0.087,0-0.348-0.005-0.619-0.009
			c-0.294-0.005-0.599-0.011-0.709-0.011c-0.138,0-0.156,0.089-0.156,0.176c0,0.187,0.133,0.196,0.367,0.196
			c0.57,0,0.629,0.132,0.629,1.414c0,1.121,0,2.816-0.05,3.458c-0.042,0.586-0.091,0.869-0.727,0.906
			c-0.185,0.01-0.269,0.014-0.269,0.206c0,0.146,0.07,0.176,0.176,0.176c0.093,0,0.359-0.005,0.632-0.01
			c0.286-0.005,0.579-0.01,0.687-0.01c0.221,0,0.444,0.005,0.668,0.01c0.225,0.005,0.449,0.01,0.671,0.01
			c0.097,0,0.186-0.019,0.186-0.156c0-0.136-0.017-0.193-0.195-0.206c-0.738-0.009-0.772-0.14-0.811-0.756
			c-0.044-0.49-0.042-1.789-0.04-2.487L155.419,109.476z"/>
		<path fill="#173A1D" d="M165.509,106.823c-0.249,0-0.501,0.003-0.734,0.006c-0.2,0.002-0.386,0.004-0.544,0.004
			c-0.182,0-0.39-0.002-0.596-0.005c-0.204-0.003-0.406-0.005-0.581-0.005c-0.129,0-0.176,0.051-0.176,0.186
			c0,0.133,0.048,0.176,0.192,0.176h0.001c0.818,0.049,0.868,0.227,0.915,0.836c0.029,0.358,0.03,1.836,0.03,3.575
			c-0.275-0.31-0.783-0.859-1.359-1.482c-1.079-1.166-2.422-2.617-2.811-3.128c-0.059-0.079-0.115-0.153-0.223-0.153h-0.07
			c-0.056,0-0.123,0.002-0.2,0.004c-0.103,0.003-0.225,0.006-0.364,0.006c-0.165,0-0.421-0.005-0.581-0.008
			c-0.074-0.001-0.128-0.002-0.144-0.002c-0.138,0-0.186,0.051-0.186,0.196c0,0.159,0.101,0.168,0.301,0.186
			c0.766,0.075,0.766,0.626,0.766,1.626c0,1.44-0.034,2.508-0.1,3.175c-0.06,0.678-0.19,0.844-0.73,0.938
			c-0.178,0.028-0.267,0.042-0.267,0.206c0,0.171,0.074,0.206,0.186,0.206c0.046,0,0.207-0.004,0.382-0.009
			c0.205-0.005,0.428-0.011,0.504-0.011c0.118,0,0.454,0.005,0.796,0.01c0.357,0.005,0.721,0.01,0.855,0.01
			c0.125,0,0.176-0.057,0.176-0.196c0-0.175-0.087-0.186-0.284-0.196c-0.77-0.038-0.818-0.354-0.864-0.659
			c-0.043-0.298-0.059-2.233-0.06-4.009l0.053,0.062c0.251,0.297,0.449,0.532,0.881,0.981c2.363,2.504,2.855,3.026,3.445,3.866
			c0.123,0.192,0.188,0.272,0.266,0.272c0.059,0,0.307-0.086,0.307-0.216c0-0.032-0.012-0.086-0.034-0.18
			c-0.015-0.067-0.032-0.137-0.037-0.18c-0.03-0.275-0.05-0.821-0.05-1.392c0-1.487,0.031-2.491,0.1-3.255
			c0.079-0.757,0.146-0.917,0.761-1.043c0.174-0.037,0.246-0.052,0.246-0.232C165.675,106.873,165.625,106.823,165.509,106.823z"/>
		<path fill="#173A1D" d="M172.702,107.181c-0.599-0.278-1.296-0.419-2.071-0.419c-0.076,0-0.204,0.005-0.39,0.013
			c-0.473,0.02-1.354,0.057-2.7,0.057c-0.176,0-0.176,0.108-0.176,0.166c0,0.122,0.015,0.204,0.223,0.216
			c0.378,0.02,0.47,0.092,0.515,0.226c0.087,0.272,0.087,0.553,0.087,2.114c0,1.056,0,2.502-0.05,2.859
			c-0.036,0.233-0.072,0.473-0.579,0.552c-0.163,0.027-0.237,0.039-0.237,0.182c0,0.182,0.044,0.206,0.216,0.206
			c0.073,0,0.286-0.005,0.506-0.01c0.233-0.005,0.473-0.01,0.561-0.01c0.272,0,0.543,0.009,0.824,0.019l0.038,0.001
			c0.28,0.01,0.559,0.02,0.839,0.02c0.743,0,1.318-0.088,1.865-0.286c2.029-0.76,2.186-2.589,2.186-3.131
			C174.361,108.983,173.841,107.698,172.702,107.181z M169.137,110.502c0-0.983,0-1.911,0.02-2.505
			c0.01-0.545,0.113-0.596,0.178-0.629c0.248-0.138,0.814-0.153,1.045-0.153c0.878,0,1.44,0.162,1.942,0.559
			c0.902,0.724,0.972,1.924,0.972,2.274c0,1.719-1.199,2.874-2.984,2.874c-1.004,0-1.101-0.221-1.143-0.588
			C169.147,112.119,169.137,112.011,169.137,110.502z"/>
		<path fill="#173A1D" d="M183.071,106.813c-0.068,0-0.264,0.005-0.466,0.01c-0.215,0.005-0.437,0.01-0.52,0.01
			c-0.077,0-0.308-0.005-0.549-0.009c-0.264-0.005-0.539-0.011-0.639-0.011c-0.147,0-0.164,0.062-0.176,0.17
			c-0.016,0.176,0.103,0.193,0.171,0.202c0.39,0.05,0.671,0.086,0.778,0.389c0.167,0.47,0.19,3.213,0.067,3.924
			c-0.035,0.219-0.289,1.314-1.918,1.314c-1.847,0-1.847-1.233-1.847-2.32c0-1.062,0.02-1.883,0.06-2.442
			c0.048-0.787,0.158-0.797,0.698-0.846c0.218-0.019,0.309-0.027,0.309-0.225c0-0.153-0.092-0.166-0.186-0.166
			c-0.079,0-0.312,0.007-0.551,0.015c-0.253,0.008-0.513,0.016-0.606,0.016c-0.216,0-0.431-0.007-0.647-0.015
			c-0.217-0.008-0.435-0.015-0.652-0.015c-0.106,0-0.146,0.053-0.146,0.196c0,0.146,0.096,0.158,0.329,0.186
			c0.432,0.052,0.445,0.097,0.466,1.638c0.007,0.23,0.004,1.126,0.002,1.719l-0.002,0.473c0,0.736,0,2.461,2.582,2.461
			c0.875,0,1.516-0.217,2.017-0.682c0.732-0.679,0.735-1.319,0.746-3.026c0.031-2.373,0.059-2.493,0.613-2.586
			c0.172-0.028,0.243-0.04,0.243-0.223C183.247,106.859,183.195,106.813,183.071,106.813z"/>
		<path fill="#173A1D" d="M187.898,109.737c-1.323-0.581-1.723-0.757-1.723-1.48c0-0.743,0.592-1.082,1.142-1.082
			c1.097,0,1.34,0.668,1.458,0.992c0.075,0.226,0.095,0.287,0.203,0.287c0.123,0,0.247-0.048,0.247-0.156
			c0-0.071-0.013-0.182-0.041-0.362c-0.055-0.356-0.034-0.707-0.024-0.875c0.003-0.046,0.005-0.08,0.005-0.101
			c0-0.066,0-0.176-0.136-0.176c-0.055,0-0.084,0.011-0.122,0.024c-0.009,0.003-0.018,0.008-0.025,0.015
			c-0.008,0.008-0.011,0.011-0.034,0.011c-0.016,0-0.076-0.008-0.166-0.019c-0.095-0.011-0.22-0.026-0.363-0.042l-0.169-0.013
			c-0.237-0.018-0.506-0.038-0.711-0.038c-1.35,0-2.189,0.696-2.189,1.817c0,0.164,0,0.663,0.463,1.104
			c0.29,0.28,0.392,0.331,1.397,0.788c1.075,0.482,1.451,0.71,1.451,1.37c0,0.662-0.531,1.142-1.263,1.142
			c-1.609,0-1.867-1.05-1.908-1.374c-0.017-0.103-0.069-0.156-0.155-0.156c-0.157,0-0.267,0.093-0.267,0.227
			c0,0.394,0.099,1.15,0.136,1.435l0.008,0.062c0.028,0.184,0.039,0.26,0.193,0.26c0.074,0,0.116-0.035,0.147-0.06
			c0.026-0.021,0.038-0.03,0.064-0.03c0.057,0,0.162,0.016,0.296,0.037c0.296,0.045,0.743,0.114,1.305,0.114
			c1.057,0,1.545-0.272,1.821-0.476c0.401-0.298,0.64-0.795,0.64-1.331C189.577,110.468,188.606,110.045,187.898,109.737z"/>
	</g>
	<g>
		<path fill="#173A1D" d="M112.775,33.382c0.131-0.175,0.224-0.316,0.333-0.442c1.643-1.907,3.295-3.806,4.926-5.724
			c0.341-0.401,0.692-0.57,1.194-0.363c0.14,0.058,0.304,0.062,0.437,0.131c0.528,0.272,0.841,0.057,1.186-0.375
			c1.344-1.684,2.729-3.336,4.102-4.997c0.619-0.748,0.821-0.753,1.464-0.018c0.94,1.075,1.87,2.157,2.874,3.318
			c0.515-0.584,0.998-1.135,1.484-1.683c0.731-0.823,0.947-0.819,1.617,0.058c2.743,3.591,5.483,7.185,8.223,10.779
			c0.111,0.146,0.208,0.303,0.254,0.594c-0.219-0.044-0.446-0.063-0.654-0.135c-2.491-0.858-5.037-1.497-7.679-1.135
			c-1.897,0.26-3.771,0.725-5.631,1.196c-1.979,0.502-3.95,1.021-5.999,1.118c-2.689,0.128-5.24-0.338-7.523-1.862
			C113.18,33.707,112.995,33.549,112.775,33.382z M125.526,22.436c-0.084,0.131-0.123,0.197-0.166,0.259
			c-1.135,1.648-2.266,3.299-3.41,4.94c-0.184,0.264-0.141,0.425,0.092,0.621c0.266,0.223,0.499,0.487,0.746,0.732
			c-0.038,0.052-0.077,0.103-0.115,0.155c-0.178-0.041-0.359-0.071-0.533-0.123c-0.876-0.261-1.755-0.511-2.621-0.799
			c-0.36-0.12-0.576-0.061-0.821,0.244c-1.073,1.338-2.177,2.652-3.267,3.977c-0.104,0.127-0.191,0.267-0.28,0.393
			c0.816,0.86,0.881,0.861,1.61,0.077c0.393-0.423,0.791-0.841,1.186-1.262c0.056,0.033,0.111,0.066,0.167,0.099
			c-0.094,0.804-0.665,1.464-0.844,2.329c4.325,0.889,8.308-0.473,12.412-1.605c-0.315-0.578-0.617-1.099-0.886-1.636
			c-0.263-0.525-0.678-0.994-0.692-1.635c0.215,0.074,0.357,0.189,0.483,0.319c0.585,0.601,1.203,1.176,1.737,1.819
			c0.522,0.629,1.06,1.015,1.937,0.805c0.436-0.104,0.917-0.018,1.522-0.018C130.982,28.84,128.282,25.671,125.526,22.436z
			 M130.271,25.883c0.067,0.105,0.1,0.173,0.147,0.231c1.532,1.874,3.066,3.748,4.601,5.62c0.072,0.087,0.148,0.203,0.244,0.233
			c1.025,0.314,2.054,0.613,3.253,0.966c-2.305-3.012-4.515-5.9-6.767-8.842C131.208,24.746,130.74,25.314,130.271,25.883z"/>
	</g>
</g>
</svg>
