<?xml version="1.0" encoding="utf-8"?>
<!-- Generator: Adobe Illustrator 17.0.0, SVG Export Plug-In . SVG Version: 6.00 Build 0)  -->
<!DOCTYPE svg PUBLIC "-//W3C//DTD SVG 1.1//EN" "http://www.w3.org/Graphics/SVG/1.1/DTD/svg11.dtd">
<svg version="1.1" id="Layer_1" xmlns="http://www.w3.org/2000/svg" xmlns:xlink="http://www.w3.org/1999/xlink" x="0px" y="0px"
	 width="142.428px" height="65px" viewBox="0 0 142.428 65" enable-background="new 0 0 142.428 65" xml:space="preserve">
<g>
	<g>
		<path fill="#218441" d="M142.14,35.152c0.676-2.354,0.138-2.084-1.392-3.345c-1.746-1.44-1.884-1.041-2.261,0.61
			c0,0-0.334-2.136-2.864-2.812c-2.42-0.647-5.439,0.542-6.647,3.041c-1.128,2.333-1.789,4.51-2.171,7.144
			c-0.357,0.696-1.068,2.184-2.646,2.229c-2.034,0.058-1.377-2.764-1.061-4.046c0.487-1.974,0.953-4.199,2.159-5.792
			c1.195-1.578,1.4-3.391-0.032-3.712c-2.25-0.503-5.13,1.891-7.471,0.527c0,0,0.739-1.815-1.042-2.428
			c-1.615-0.556-3.286,0.855-2.779,2.77c0.249,0.941,0.739,1.542,1.354,1.888c-0.529,2.051-1.384,3.782-2.661,5.39
			c-1.914,2.41-5.294,4.02-8.027,2.291c-1.302-0.823-2.467-2.701-2.355-4.338c0.004-0.061,0.059-0.1,0.118-0.084
			c2.016,0.526,4.307,0.245,6.354-0.046c3.134-0.446,2.567-0.257,2.678-1.86c0.202-2.927-0.862-5.761-3.286-7.204
			c-2.449-1.458-6.064-0.945-7.679,1.446c-0.826,1.223-1.599,2.69-1.988,4.272c-0.896-0.334-1.966-0.114-2.374-0.076
			c0.242-1.609-0.084-3.841-0.996-5.128c-1.344-1.895-4.045-1.984-5.679-0.642c-1.738,1.428-2.025,4.595-0.763,6.485
			c1.186,1.776,3.407,2.485,5.259,1.767c0,0-0.294,3.067-1.97,3.768c-3.626,1.518-6.285-2.254-5.966-6.134
			c0.166-2.022,0.231-3.508,0.311-4.565c1.947-3.294,3.878-6.657,5.794-9.918c0.039-0.066,0.078-0.135,0.115-0.202
			c0.037-0.066,0.058-0.102,0.058-0.102c-0.002,0-0.004,0-0.006,0c0.163-0.325,0.286-0.684,0.358-1.082
			c0.469-2.617-1.583-4.334-3.748-4.391c-2.184-0.057-4.539,1.727-5.32,3.91c-0.72,2.012-0.743,4.533-0.85,6.705
			c-0.159,3.225-0.407,6.539-0.553,9.813c-0.391,0.78-1.254,2.431-1.7,2.999c0,0-0.182-1.752-1.916-3.151
			c-1.695-1.367-3.453-2.281-5.001-3.978c0,0,1.539-0.944,1.338-2.838c-0.118-1.116-0.799-1.626-1.761-1.919
			c-1.821-0.556-4.088,0.196-4.5,2.451c-0.257,1.405,0.299,2.693,1.746,3.576c-0.63,1.893-1.221,3.859-1.922,5.666
			c-0.493,1.272-2.332,4.19-3.504,3.06c-1.603-1.546-0.953-6.3-0.931-8.907c0.012-1.376,0.085-2.35,0.005-2.937
			c-0.111-0.81-1.539-0.99-2.362-1.432c-0.914-0.491-1.578-0.396-1.552,0.478c0.071,2.362,0.252,4.827,0.306,7.176
			c0.041,1.782-0.037,3.72-1.116,5.161c-1.116,1.492-2.646,0.696-3.014-0.635c-0.826-2.986-0.548-6.805-0.592-10.114
			c-0.012-0.941-0.071-1.162-1.051-1.634c-0.262-0.126-0.49-0.282-0.846-0.431c-1.899-0.793-2.236-0.202-2.197,0.413
			c0.195,3.096,0.304,6.254,0.419,9.376c0.049,1.319,0.183,2.676,0.46,3.753c-0.303,0.488-0.877,1.094-1.64,1.538
			c-1.593,0.927-2.628-0.869-2.782-2.397c-0.308-3.063-0.29-6.513-0.103-9.695c0.098-1.671-0.433-1.496-2.162-2.186
			c-1.804-0.72-2.082-0.317-1.982,1.466c0,0-0.933-1.873-3.499-1.752c-2.541,0.119-4.945,2.539-5.543,5.052
			c-0.613,2.579-0.57,5.005-0.159,7.765c-0.012,0.048-0.062,0.233-0.155,0.512c-0.338,0.845-0.996,1.977-2.158,2.399
			c-1.904,0.692-2.389-1.811-2.44-3.328c-0.071-2.135-0.207-4.414,0.336-6.462c0.52-1.964,0.369-3.426-0.811-3.359
			c-1.918,0.109-3.892,3.292-6.192,2.752c0,0,0.231-1.975-1.634-1.987c-1.691-0.011-2.905,1.864-1.933,3.546
			c0.844,1.461,2.454,1.67,3.81,1.089c1.393-0.596,2.562-2.175,3.233-1.795c0.504,0.286,0.105,1.318-0.042,3.196
			c-0.198,2.517-0.654,5.637,1.235,7.566c1.337,1.366,2.497,1.524,3.339,1.395c-0.418,0.332-0.88,0.625-1.393,0.851
			c-4.474,1.976-9.424-0.981-12.237-4.797c-1.435-1.947-2.798-4.079-3.918-6.293c-0.095-0.188-0.086-0.414,0.021-0.604
			c1.043-1.851,1.884-3.883,2.592-5.879c1.21-3.414,2.889-6.456,6.2-7.768c1.513-0.6,1.944-0.035,2.041,0.511
			c0.056,0.316,0.46,0.437,0.712,0.218c1.105-0.959,0.878-2.25,0.141-3.216c-1.871-2.453-5.743-0.593-7.782,0.696
			c-4.114,2.601-5.057,9.18-6.574,13.711c-0.652,1.946-1.415,4.134-2.839,5.585c-0.186,0.19-0.504,0.1-0.552-0.158
			c-0.592-3.173-1.184-6.347-1.776-9.52c-0.219-1.172-0.269-1.907-0.482-3.41c-0.186-1.315-0.687-2.468-2.114-1.773
			c-1.092,0.532-3.791,1.707-3.058,3.634c0.316,0.83,0.97,1.123,1.244,2.249c0.92,3.792,1.767,7.611,2.585,11.434
			c0.323,1.476,0.485,2.214,0.808,3.691c0.361,1.821,0.722,3.642,1.083,5.463c0.482,2.434,0.313,3.175,1.12,3.385
			c4.991,1.297,2.966-2.619,2.249-6.431c-0.199-1.059-0.401-1.981-0.6-3.042c-0.204-1.096-0.307-1.644-0.511-2.739
			c-0.044-0.235,0.063-0.478,0.269-0.604c0.727-0.449,1.421-1.023,2.078-1.693c0.241-0.245,0.638-0.199,0.805,0.089
			c1.764,3.031,4.086,5.641,6.485,7.988c6.585,6.443,13.328,1.146,17.359-5.851c0.002,0.004,0.003,0.006,0.004,0.01
			c1.115,1.866,2.883,3.47,4.964,3.562c1.88,0.083,3.694-1.255,4.687-2.964c0,0,0.94,1.855,2.875,2.359
			c1.972,0.514,4.42-0.567,5.314-2.75c0.72,1.509,2.204,2.32,3.697,1.972c1.581-0.369,3-1.516,4.132-2.819
			c3.101,3.425,5.834,3.028,7.853-1.249c1.101-2.332,1.876-4.904,2.66-7.394c0.491,0.447,1.049,0.938,1.659,1.516
			c1.107,1.049,5.367,4.549,3.408,6.456c-1.356,1.32-3.497,0.015-4.709-1.098c-0.524-0.481-1.447,0.754-1.764,1.38
			c-0.317,0.626-0.426,1.222,0.651,1.864c1.863,1.111,4.474,2.021,6.572,1.16c2.613-1.073,4.057-4.118,5.093-6.803
			c-0.043,2.373,1.073,4.944,2.779,6.139c2.379,1.666,5.578,2.094,7.973-0.186c1.728-1.645,2.471-4.249,2.821-6.732
			c1.104-0.381,2.323,0.16,2.323,0.16c-0.032,2.757,0.615,6.368,2.811,8.028c3.456,2.613,7.687,1.5,10.577-0.922
			c2.547-2.134,4.135-5.278,5.746-8.557c0.023-0.001,0.047,0,0.07-0.003c1.101-0.105,3.636-1.052,4.176-0.234
			c0.329,0.499-0.305,1.594-0.931,3.371c-0.801,2.277-1.702,5.349-0.665,7.703c0.735,1.67,2.436,2.657,4.003,1.921
			c1.268-0.595,2.207-1.647,3.133-2.877c0.569,2.131,1.805,4.315,3.795,4.924c1.409,0.432,2.951,0.202,4.245-0.625
			c-0.984,4.351-2.027,8.773-2.765,13.108c-0.41,2.411-3.063,2.963-4.503,1.705c-1.116-0.975-1.21-3.127-0.171-4.307
			c1.178-1.338,4.27-3.218,4.151-4.684c-0.077-0.948-0.807-2.352-1.771-2.621c-1.742-0.488-3.445,1.985-4.497,3.383
			c-1.914,2.541-2.11,5.119-1.151,8.084c1.218,3.764,6.667,5.647,9.843,3.299c2.523-1.865,2.618-5.073,3.06-8.102
			c0.58-3.973,1.631-7.979,2.621-11.906C140.591,40.877,141.324,37.994,142.14,35.152z M44.179,32.931
			c0.05,1.644-0.369,3.35-1.188,4.637c-2.215,3.478-4.806-1.532-4.838-4.02c-0.031-2.44,0.9-7.351,3.91-5.699
			C43.567,28.675,44.124,31.124,44.179,32.931z M86.556,23.357c0.055-0.521,0.238-1.862,0.309-2.38
			c0.21-1.533,0.219-3.282,0.785-4.674c0.503-1.239,2.778-2.658,3.247-0.535c0.065,0.296,0.018,0.67-0.072,1.032
			c-1.234,2.622-2.862,5.031-4.364,7.466C86.495,23.931,86.525,23.648,86.556,23.357z M90.702,30.489
			c0.031-0.58,0.58-1.588,1.918-1.16c1.338,0.428,1.441,2.063,1.441,2.063C91.893,32.558,90.671,31.069,90.702,30.489z
			 M102.566,29.667c0.379-1.347,1.297-2.412,3.144-2.072c1.233,0.227,2.031,2.689,2.104,3.596c0.092,1.14-0.021,1.133-2.063,1.351
			c-1.817,0.195-2.854-0.017-3.523-0.226C102.275,31.762,102.275,30.703,102.566,29.667z M137.152,39.024
			c-0.383,1.604-1.12,3.547-2.471,4.311c-3.277,1.852-4.16-2.99-3.639-5.704c0.51-2.66,2.79-6.657,5.414-4.153
			C137.769,34.73,137.553,37.343,137.152,39.024z"/>
	</g>
	<g>
		<path fill="#173A1D" d="M38.896,55.222c-0.268-0.018-0.378-0.025-0.416-0.281c-0.03-0.19-0.03-0.974-0.03-1.394
			c0-0.732,0-1.175,0.042-1.498c0.026-0.195,0.087-0.28,0.401-0.304c0.099-0.006,0.149-0.009,0.149-0.124c0-0.03,0-0.1-0.087-0.1
			c-0.05,0-0.196,0.003-0.346,0.006c-0.158,0.003-0.32,0.006-0.379,0.006c-0.052,0-0.204-0.003-0.363-0.006
			c-0.172-0.003-0.35-0.006-0.416-0.006c-0.1,0-0.1,0.066-0.1,0.106c0,0.099,0.082,0.107,0.128,0.112
			c0.313,0.017,0.375,0.092,0.391,0.295c0.012,0.201,0.012,0.339,0.012,1.208h-2.107c0-0.392,0.001-0.91,0.03-1.206
			c0.02-0.182,0.084-0.273,0.392-0.297c0.126-0.007,0.152-0.027,0.152-0.124c0-0.033,0-0.094-0.082-0.094
			c-0.142,0-0.284,0.003-0.426,0.006c-0.142,0.003-0.283,0.006-0.425,0.006c-0.105,0-0.21-0.003-0.316-0.006
			c-0.106-0.003-0.212-0.006-0.318-0.006c-0.048,0-0.1,0.009-0.1,0.112c0,0.088,0.056,0.094,0.148,0.105
			c0.298,0.046,0.36,0.055,0.371,0.5c0.006,0.211,0.006,0.566,0.006,1.273c0,0.518,0,1.162-0.042,1.411
			c-0.03,0.15-0.075,0.268-0.358,0.302c-0.095,0.011-0.138,0.016-0.138,0.086c0,0.096,0.005,0.13,0.1,0.13
			c0.053,0,0.209-0.003,0.37-0.006c0.168-0.003,0.341-0.006,0.403-0.006c0.047,0,0.184,0.003,0.326,0.006
			c0.151,0.003,0.306,0.006,0.362,0.006c0.064,0,0.124,0,0.124-0.1c0-0.086-0.027-0.103-0.096-0.112
			c-0.311-0.024-0.427-0.033-0.459-0.285c-0.023-0.206-0.024-0.412-0.024-1.381c0.497-0.003,0.775-0.004,1.053-0.004
			c0.278,0,0.556,0.001,1.053,0.004c0,0.797-0.001,1.239-0.047,1.424c-0.042,0.159-0.112,0.207-0.347,0.237
			c-0.102,0.011-0.149,0.017-0.149,0.117c0,0.032,0.003,0.052,0.011,0.067c0.006,0.013,0.023,0.034,0.059,0.034
			c0.007,0,0.015-0.001,0.018-0.002c0.016,0,0.04-0.001,0.076-0.002c0.101-0.003,0.311-0.01,0.703-0.01
			c0.402,0,0.57,0.006,0.66,0.01c0.032,0.001,0.053,0.002,0.07,0.002c0.058,0,0.118,0,0.118-0.1
			C39.053,55.239,39.007,55.234,38.896,55.222z"/>
		<path fill="#173A1D" d="M42.327,51.461c-1.462,0-2.128,1.081-2.128,2.086c0,0.947,0.712,1.953,2.031,1.953
			c1.397,0,2.128-1.022,2.128-2.031C44.359,52.286,43.523,51.461,42.327,51.461z M42.152,51.769c1.076,0,1.566,0.962,1.566,1.856
			c0,1.453-1.023,1.566-1.337,1.566c-0.766,0-1.542-0.629-1.542-1.832C40.84,52.59,41.184,51.769,42.152,51.769z"/>
		<path fill="#173A1D" d="M47.778,51.461c-1.462,0-2.128,1.081-2.128,2.086c0,0.947,0.712,1.953,2.031,1.953
			c1.397,0,2.128-1.022,2.128-2.031C49.809,52.286,48.974,51.461,47.778,51.461z M47.603,51.769c1.076,0,1.566,0.962,1.566,1.856
			c0,1.453-1.023,1.566-1.337,1.566c-0.766,0-1.542-0.629-1.542-1.832C46.29,52.59,46.635,51.769,47.603,51.769z"/>
		<path fill="#173A1D" d="M54.019,54.328c-0.06,0-0.078,0.059-0.098,0.128c-0.006,0.022-0.014,0.047-0.024,0.074
			c-0.184,0.564-0.505,0.564-1.363,0.564c-0.323,0-0.371-0.009-0.39-0.154c-0.036-0.208-0.036-0.695-0.036-1.503
			c0-0.446,0.012-1.331,0.058-1.484c0.04-0.114,0.088-0.191,0.376-0.215c0.11-0.007,0.14-0.023,0.14-0.124
			c0-0.064-0.035-0.1-0.1-0.1c-0.05,0-0.196,0.006-0.347,0.012c-0.157,0.006-0.319,0.013-0.378,0.013
			c-0.047,0-0.184-0.006-0.325-0.012c-0.151-0.006-0.307-0.013-0.363-0.013c-0.085,0-0.1,0.042-0.1,0.13
			c0,0.073,0.048,0.081,0.25,0.111c0.213,0.036,0.233,0.169,0.239,0.831v0.567c0,0.614-0.005,1.364-0.048,1.715
			c-0.024,0.16-0.048,0.325-0.371,0.353c-0.09,0.007-0.124,0.019-0.124,0.123c0,0.094,0.066,0.106,0.124,0.106
			c0.024,0,0.069-0.002,0.136-0.006c0.194-0.01,0.598-0.031,1.259-0.031c0.814,0,1.095,0.021,1.23,0.03
			c0.048,0.004,0.079,0.006,0.11,0.006c0.083,0,0.102-0.08,0.128-0.192c0.168-0.619,0.17-0.829,0.17-0.831
			C54.173,54.336,54.093,54.328,54.019,54.328z"/>
		<path fill="#173A1D" d="M58.375,51.736c-0.359-0.167-0.777-0.251-1.242-0.251c-0.045,0-0.122,0.003-0.234,0.008
			c-0.284,0.012-0.812,0.034-1.619,0.034c-0.106,0-0.106,0.065-0.106,0.1c0,0.073,0.009,0.122,0.134,0.13
			c0.227,0.012,0.282,0.055,0.309,0.136c0.052,0.163,0.052,0.332,0.052,1.268c0,0.633,0,1.5-0.03,1.714
			c-0.021,0.139-0.043,0.284-0.347,0.331c-0.098,0.016-0.142,0.024-0.142,0.109c0,0.109,0.026,0.124,0.13,0.124
			c0.044,0,0.172-0.003,0.303-0.006c0.14-0.003,0.284-0.006,0.337-0.006c0.163,0,0.326,0.006,0.494,0.011l0.023,0.001
			c0.168,0.006,0.335,0.012,0.503,0.012c0.445,0,0.79-0.053,1.118-0.172c1.217-0.455,1.311-1.553,1.311-1.878
			C59.37,52.817,59.058,52.046,58.375,51.736z M56.237,53.728c0-0.59,0-1.146,0.012-1.502c0.006-0.327,0.068-0.358,0.107-0.377
			c0.149-0.083,0.488-0.092,0.627-0.092c0.526,0,0.864,0.097,1.165,0.335c0.541,0.434,0.583,1.154,0.583,1.364
			c0,1.031-0.719,1.723-1.79,1.723c-0.602,0-0.66-0.133-0.685-0.353C56.243,54.698,56.237,54.633,56.237,53.728z"/>
		<path fill="#173A1D" d="M64.593,51.515c-0.041,0-0.158,0.003-0.28,0.006c-0.129,0.003-0.262,0.006-0.312,0.006
			c-0.046,0-0.184-0.003-0.329-0.006c-0.158-0.003-0.324-0.006-0.383-0.006c-0.088,0-0.098,0.037-0.105,0.102
			c-0.01,0.105,0.062,0.115,0.103,0.121c0.234,0.03,0.403,0.052,0.467,0.233c0.1,0.282,0.114,1.927,0.04,2.353
			c-0.021,0.132-0.173,0.788-1.15,0.788c-1.108,0-1.108-0.739-1.108-1.391c0-0.637,0.012-1.129,0.036-1.464
			c0.029-0.472,0.095-0.478,0.418-0.507c0.131-0.011,0.185-0.016,0.185-0.135c0-0.092-0.055-0.1-0.112-0.1
			c-0.047,0-0.187,0.004-0.331,0.009c-0.152,0.005-0.308,0.009-0.363,0.009c-0.129,0-0.259-0.004-0.388-0.009
			c-0.13-0.005-0.261-0.009-0.391-0.009c-0.064,0-0.088,0.032-0.088,0.118c0,0.088,0.058,0.095,0.198,0.111
			c0.259,0.031,0.267,0.058,0.279,0.982c0.004,0.138,0.002,0.675,0.001,1.031l-0.001,0.283c0,0.442,0,1.476,1.548,1.476
			c0.525,0,0.909-0.13,1.21-0.409c0.439-0.407,0.441-0.791,0.447-1.815c0.018-1.423,0.035-1.495,0.368-1.551
			c0.103-0.017,0.146-0.024,0.146-0.134C64.699,51.543,64.667,51.515,64.593,51.515z"/>
		<path fill="#173A1D" d="M67.488,53.269c-0.794-0.349-1.033-0.454-1.033-0.888c0-0.446,0.355-0.649,0.685-0.649
			c0.658,0,0.804,0.401,0.874,0.595c0.045,0.135,0.057,0.172,0.122,0.172c0.074,0,0.148-0.029,0.148-0.094
			c0-0.042-0.008-0.109-0.025-0.217c-0.033-0.213-0.021-0.424-0.014-0.525c0.002-0.027,0.003-0.048,0.003-0.061
			c0-0.04,0-0.106-0.081-0.106c-0.033,0-0.051,0.006-0.073,0.014c-0.006,0.002-0.011,0.005-0.015,0.009
			c-0.005,0.005-0.007,0.007-0.021,0.007c-0.01,0-0.046-0.005-0.099-0.011c-0.057-0.007-0.132-0.016-0.218-0.025l-0.101-0.008
			c-0.142-0.011-0.303-0.023-0.427-0.023c-0.81,0-1.313,0.418-1.313,1.09c0,0.098,0,0.398,0.278,0.662
			c0.174,0.168,0.235,0.198,0.838,0.472c0.645,0.289,0.87,0.426,0.87,0.821c0,0.397-0.319,0.685-0.758,0.685
			c-0.965,0-1.12-0.63-1.145-0.824c-0.01-0.062-0.041-0.093-0.093-0.093c-0.094,0-0.16,0.056-0.16,0.136
			c0,0.236,0.059,0.69,0.081,0.86l0.005,0.037c0.017,0.11,0.023,0.156,0.116,0.156c0.044,0,0.07-0.021,0.088-0.036
			c0.016-0.013,0.023-0.018,0.039-0.018c0.034,0,0.097,0.01,0.177,0.022c0.177,0.027,0.445,0.069,0.782,0.069
			c0.634,0,0.927-0.163,1.092-0.285c0.24-0.178,0.384-0.477,0.384-0.798C68.495,53.707,67.913,53.454,67.488,53.269z"/>
		<path fill="#173A1D" d="M73.254,51.479c-0.019,0-0.036,0.008-0.057,0.018c-0.023,0.011-0.051,0.024-0.091,0.031
			c-0.13,0.031-1.331,0.041-1.892,0.041c-0.197,0-0.961-0.006-1.179-0.024c-0.117-0.012-0.145-0.018-0.184-0.038
			c-0.058-0.032-0.065-0.035-0.11-0.035c-0.069,0-0.084,0.057-0.105,0.137L69.63,51.63c-0.044,0.185-0.14,0.63-0.14,0.746
			c0,0.03,0.011,0.1,0.112,0.1c0.036,0,0.103,0,0.128-0.065c0.129-0.447,0.148-0.515,1.275-0.515l0.103,0
			c0.017,0.859,0.004,1.704-0.013,2.499c-0.018,0.707-0.019,0.765-0.486,0.816c-0.114,0.011-0.166,0.016-0.166,0.123
			c0,0.055,0.013,0.112,0.106,0.112c0.07,0,0.256-0.005,0.442-0.009c0.185-0.005,0.37-0.009,0.44-0.009
			c0.276,0,0.435,0.007,0.563,0.012c0.08,0.003,0.145,0.006,0.216,0.006c0.067,0,0.13-0.012,0.13-0.1c0-0.039,0-0.087-0.043-0.115
			c-0.023-0.009-0.082-0.016-0.169-0.025c-0.03-0.003-0.056-0.006-0.069-0.008c-0.389-0.068-0.389-0.068-0.389-1.41
			c0-0.335,0.006-1.425,0.023-1.892h0.691c0.376,0.019,0.499,0.042,0.525,0.245c0.006,0.04,0.003,0.084-0.001,0.131
			c-0.003,0.032-0.005,0.065-0.005,0.098c0,0.1,0.084,0.1,0.13,0.1c0.081,0,0.109-0.029,0.135-0.137
			c0.002-0.007,0.183-0.663,0.183-0.783C73.348,51.479,73.287,51.479,73.254,51.479z"/>
		<path fill="#173A1D" d="M77.316,54.352c-0.045,0-0.066,0.052-0.113,0.181c-0.015,0.041-0.03,0.081-0.042,0.107
			c-0.179,0.364-0.377,0.485-1.196,0.485c-0.348,0-0.46-0.006-0.531-0.044c-0.079-0.042-0.082-0.072-0.082-1.555l0.181,0.002
			c0.422,0.004,0.564,0.005,0.72,0.016c0.304,0.012,0.483,0.079,0.499,0.386c0.007,0.092,0.026,0.133,0.124,0.133
			c0.033,0,0.112,0,0.112-0.094l0-0.06c-0.018-0.13-0.018-0.344-0.018-0.472c0-0.082,0.005-0.198,0.01-0.307
			c0.004-0.099,0.008-0.194,0.008-0.254c0-0.064,0-0.136-0.106-0.136c-0.097,0-0.105,0.048-0.118,0.127
			c-0.019,0.226-0.064,0.326-0.291,0.357c-0.106,0.012-0.159,0.018-1.121,0.018v-1.252c0-0.095,0.009-0.118,0.014-0.125
			c0.006-0.005,0.078-0.047,0.659-0.047c0.956,0,0.964,0.116,0.994,0.555c0.012,0.111,0.017,0.157,0.135,0.157
			c0.035,0,0.118,0,0.118-0.094c0-0.189,0.007-0.339,0.024-0.532l0.009-0.058c0.017-0.105,0.033-0.201,0.033-0.238
			c0-0.094-0.079-0.094-0.148-0.094l-0.055,0l-0.23,0.006c-0.157,0.006-1.528,0.018-1.647,0.018c-0.055,0-0.221-0.004-0.392-0.009
			c-0.186-0.005-0.378-0.01-0.447-0.01c-0.066,0-0.1,0.038-0.1,0.112c0,0.102,0.052,0.112,0.107,0.112h0.001
			c0.24,0.019,0.298,0.035,0.321,0.146c0.013,0.05,0.035,0.314,0.035,1.517c0,0.336,0,1.23-0.024,1.487
			c-0.027,0.289-0.102,0.297-0.384,0.327c-0.084,0.007-0.118,0.019-0.118,0.117c0,0.094,0.044,0.112,0.13,0.112
			c0.049,0,0.173-0.006,0.321-0.013c0.214-0.01,0.479-0.023,0.633-0.023c0.385,0,0.996,0.016,1.4,0.026
			c0.214,0.006,0.376,0.01,0.429,0.01c0.078,0,0.096-0.061,0.115-0.125l0.007-0.024c0.042-0.139,0.183-0.74,0.183-0.85
			C77.476,54.352,77.364,54.352,77.316,54.352z"/>
		<path fill="#173A1D" d="M81.65,54.352c-0.045,0-0.066,0.052-0.113,0.181c-0.015,0.041-0.03,0.081-0.042,0.107
			c-0.179,0.364-0.377,0.485-1.196,0.485c-0.348,0-0.46-0.006-0.531-0.044c-0.079-0.042-0.082-0.072-0.082-1.555l0.181,0.002
			c0.422,0.004,0.564,0.005,0.72,0.016c0.304,0.012,0.483,0.079,0.499,0.386c0.007,0.092,0.026,0.133,0.124,0.133
			c0.033,0,0.112,0,0.112-0.094l0-0.06c-0.018-0.13-0.018-0.344-0.018-0.472c0-0.082,0.005-0.198,0.01-0.307
			c0.004-0.099,0.008-0.194,0.008-0.254c0-0.064,0-0.136-0.106-0.136c-0.097,0-0.105,0.048-0.118,0.127
			c-0.019,0.226-0.064,0.326-0.291,0.357c-0.106,0.012-0.159,0.018-1.121,0.018v-1.252c0-0.095,0.009-0.118,0.014-0.125
			c0.006-0.005,0.078-0.047,0.659-0.047c0.956,0,0.964,0.116,0.994,0.555c0.012,0.111,0.017,0.157,0.135,0.157
			c0.035,0,0.118,0,0.118-0.094c0-0.189,0.007-0.339,0.024-0.532l0.009-0.058c0.017-0.105,0.033-0.201,0.033-0.238
			c0-0.094-0.079-0.094-0.148-0.094l-0.055,0l-0.23,0.006c-0.157,0.006-1.528,0.018-1.647,0.018c-0.055,0-0.221-0.004-0.392-0.009
			c-0.186-0.005-0.378-0.01-0.447-0.01c-0.066,0-0.1,0.038-0.1,0.112c0,0.102,0.052,0.112,0.107,0.112h0.001
			c0.24,0.019,0.298,0.035,0.321,0.146c0.013,0.05,0.035,0.314,0.035,1.517c0,0.336,0,1.23-0.024,1.487
			c-0.027,0.289-0.102,0.297-0.384,0.327c-0.084,0.007-0.118,0.019-0.118,0.117c0,0.094,0.044,0.112,0.13,0.112
			c0.049,0,0.173-0.006,0.321-0.013c0.214-0.01,0.479-0.023,0.633-0.023c0.385,0,0.996,0.016,1.4,0.026
			c0.214,0.006,0.376,0.01,0.429,0.01c0.078,0,0.096-0.061,0.115-0.125l0.007-0.024c0.042-0.139,0.183-0.74,0.183-0.85
			C81.81,54.352,81.698,54.352,81.65,54.352z"/>
		<path fill="#173A1D" d="M87.293,51.521c-0.149,0-0.301,0.002-0.44,0.003c-0.12,0.001-0.231,0.003-0.326,0.003
			c-0.109,0-0.234-0.001-0.358-0.003c-0.122-0.002-0.244-0.003-0.349-0.003c-0.077,0-0.106,0.03-0.106,0.112
			c0,0.08,0.029,0.106,0.115,0.106h0c0.491,0.03,0.521,0.136,0.549,0.501c0.017,0.215,0.018,1.101,0.018,2.144
			c-0.165-0.186-0.47-0.515-0.815-0.889c-0.647-0.699-1.452-1.569-1.686-1.876c-0.035-0.047-0.069-0.092-0.134-0.092H83.72
			c-0.034,0-0.074,0.001-0.12,0.002c-0.062,0.002-0.135,0.004-0.218,0.004c-0.099,0-0.252-0.003-0.348-0.005
			c-0.044-0.001-0.077-0.001-0.086-0.001c-0.083,0-0.112,0.031-0.112,0.118c0,0.095,0.06,0.101,0.18,0.112
			c0.46,0.045,0.46,0.375,0.46,0.975c0,0.863-0.02,1.504-0.06,1.904c-0.036,0.406-0.114,0.506-0.438,0.562
			c-0.106,0.017-0.16,0.025-0.16,0.123c0,0.103,0.045,0.124,0.112,0.124c0.028,0,0.124-0.003,0.229-0.005
			c0.123-0.003,0.257-0.007,0.302-0.007c0.071,0,0.272,0.003,0.477,0.006c0.214,0.003,0.432,0.006,0.513,0.006
			c0.075,0,0.106-0.034,0.106-0.118c0-0.105-0.052-0.112-0.17-0.118c-0.462-0.023-0.491-0.212-0.518-0.395
			c-0.026-0.179-0.035-1.339-0.036-2.404l0.032,0.037c0.15,0.178,0.269,0.319,0.528,0.588c1.417,1.502,1.712,1.814,2.066,2.318
			c0.074,0.115,0.112,0.163,0.16,0.163c0.036,0,0.184-0.052,0.184-0.13c0-0.019-0.007-0.052-0.02-0.108
			c-0.009-0.04-0.019-0.082-0.022-0.108c-0.018-0.165-0.03-0.492-0.03-0.835c0-0.892,0.019-1.494,0.06-1.952
			c0.047-0.454,0.088-0.55,0.456-0.626c0.104-0.022,0.147-0.031,0.147-0.139C87.393,51.551,87.363,51.521,87.293,51.521z"/>
		<path fill="#173A1D" d="M89.457,53.112c0.006-1.318,0.045-1.356,0.468-1.361c0.114,0,0.16-0.011,0.16-0.124
			c0-0.052-0.011-0.106-0.094-0.106c-0.119,0-0.671,0.006-0.797,0.012c-0.052,0-0.209-0.003-0.371-0.006
			c-0.176-0.003-0.359-0.006-0.425-0.006c-0.083,0-0.094,0.053-0.094,0.106c0,0.112,0.08,0.118,0.22,0.118
			c0.342,0,0.377,0.079,0.377,0.848c0,0.672,0,1.689-0.03,2.074c-0.025,0.351-0.055,0.521-0.436,0.543
			c-0.111,0.006-0.161,0.008-0.161,0.124c0,0.088,0.042,0.106,0.106,0.106c0.056,0,0.215-0.003,0.379-0.006
			c0.171-0.003,0.347-0.006,0.412-0.006c0.132,0,0.266,0.003,0.4,0.006c0.135,0.003,0.269,0.006,0.402,0.006
			c0.058,0,0.112-0.011,0.112-0.094c0-0.082-0.01-0.116-0.117-0.124c-0.443-0.006-0.463-0.084-0.487-0.453
			c-0.026-0.294-0.025-1.073-0.024-1.492L89.457,53.112z"/>
		<path fill="#173A1D" d="M95.508,51.521c-0.149,0-0.301,0.002-0.44,0.003c-0.12,0.001-0.231,0.003-0.326,0.003
			c-0.109,0-0.234-0.001-0.358-0.003c-0.122-0.002-0.244-0.003-0.349-0.003c-0.077,0-0.106,0.03-0.106,0.112
			c0,0.08,0.029,0.106,0.115,0.106h0c0.491,0.03,0.521,0.136,0.549,0.501c0.017,0.215,0.018,1.101,0.018,2.144
			c-0.165-0.186-0.47-0.515-0.815-0.889c-0.647-0.699-1.452-1.569-1.686-1.876c-0.035-0.047-0.069-0.092-0.134-0.092h-0.042
			c-0.034,0-0.074,0.001-0.12,0.002c-0.062,0.002-0.135,0.004-0.218,0.004c-0.099,0-0.252-0.003-0.348-0.005
			c-0.044-0.001-0.077-0.001-0.086-0.001c-0.083,0-0.112,0.031-0.112,0.118c0,0.095,0.06,0.101,0.18,0.112
			c0.46,0.045,0.46,0.375,0.46,0.975c0,0.863-0.02,1.504-0.06,1.904c-0.036,0.406-0.114,0.506-0.438,0.562
			c-0.106,0.017-0.16,0.025-0.16,0.123c0,0.103,0.045,0.124,0.112,0.124c0.028,0,0.124-0.003,0.229-0.005
			c0.123-0.003,0.257-0.007,0.302-0.007c0.071,0,0.272,0.003,0.477,0.006c0.214,0.003,0.432,0.006,0.513,0.006
			c0.075,0,0.106-0.034,0.106-0.118c0-0.105-0.052-0.112-0.17-0.118c-0.462-0.023-0.491-0.212-0.518-0.395
			c-0.026-0.179-0.035-1.339-0.036-2.404l0.032,0.037c0.15,0.178,0.269,0.319,0.528,0.588c1.417,1.502,1.712,1.814,2.066,2.318
			c0.074,0.115,0.112,0.163,0.16,0.163c0.036,0,0.184-0.052,0.184-0.13c0-0.019-0.007-0.052-0.02-0.108
			c-0.009-0.04-0.019-0.082-0.022-0.108c-0.018-0.165-0.03-0.492-0.03-0.835c0-0.892,0.019-1.494,0.06-1.952
			c0.047-0.454,0.088-0.55,0.456-0.626c0.104-0.022,0.147-0.031,0.147-0.139C95.607,51.551,95.577,51.521,95.508,51.521z"/>
		<path fill="#173A1D" d="M99.821,51.736c-0.359-0.167-0.777-0.251-1.242-0.251c-0.045,0-0.122,0.003-0.234,0.008
			c-0.284,0.012-0.812,0.034-1.619,0.034c-0.106,0-0.106,0.065-0.106,0.1c0,0.073,0.009,0.122,0.134,0.13
			c0.227,0.012,0.282,0.055,0.309,0.136c0.052,0.163,0.052,0.332,0.052,1.268c0,0.633,0,1.5-0.03,1.714
			c-0.021,0.139-0.043,0.284-0.347,0.331c-0.098,0.016-0.142,0.024-0.142,0.109c0,0.109,0.026,0.124,0.13,0.124
			c0.044,0,0.172-0.003,0.303-0.006c0.14-0.003,0.284-0.006,0.337-0.006c0.163,0,0.326,0.006,0.494,0.011l0.023,0.001
			c0.168,0.006,0.335,0.012,0.503,0.012c0.445,0,0.79-0.053,1.118-0.172c1.217-0.455,1.311-1.553,1.311-1.878
			C100.816,52.817,100.505,52.046,99.821,51.736z M97.683,53.728c0-0.59,0-1.146,0.012-1.502c0.006-0.327,0.068-0.358,0.107-0.377
			c0.149-0.083,0.488-0.092,0.627-0.092c0.526,0,0.864,0.097,1.165,0.335c0.541,0.434,0.583,1.154,0.583,1.364
			c0,1.031-0.719,1.723-1.79,1.723c-0.602,0-0.66-0.133-0.685-0.353C97.689,54.698,97.683,54.633,97.683,53.728z"/>
		<path fill="#173A1D" d="M106.04,51.515c-0.041,0-0.158,0.003-0.28,0.006c-0.129,0.003-0.262,0.006-0.312,0.006
			c-0.046,0-0.185-0.003-0.329-0.006c-0.158-0.003-0.323-0.006-0.383-0.006c-0.088,0-0.099,0.037-0.106,0.102
			c-0.01,0.105,0.062,0.115,0.103,0.121c0.234,0.03,0.402,0.052,0.467,0.233c0.1,0.282,0.114,1.927,0.04,2.353
			c-0.021,0.132-0.173,0.788-1.15,0.788c-1.108,0-1.108-0.739-1.108-1.391c0-0.637,0.012-1.129,0.036-1.464
			c0.029-0.472,0.095-0.478,0.418-0.507c0.131-0.011,0.185-0.016,0.185-0.135c0-0.092-0.055-0.1-0.112-0.1
			c-0.047,0-0.187,0.004-0.331,0.009c-0.152,0.005-0.308,0.009-0.363,0.009c-0.129,0-0.259-0.004-0.388-0.009
			c-0.13-0.005-0.261-0.009-0.391-0.009c-0.064,0-0.088,0.032-0.088,0.118c0,0.088,0.058,0.095,0.198,0.111
			c0.259,0.031,0.267,0.058,0.279,0.982c0.004,0.138,0.002,0.675,0.001,1.031l-0.001,0.283c0,0.442,0,1.476,1.548,1.476
			c0.525,0,0.909-0.13,1.21-0.409c0.439-0.407,0.441-0.791,0.447-1.815c0.018-1.423,0.035-1.495,0.368-1.551
			c0.103-0.017,0.146-0.024,0.146-0.134C106.146,51.543,106.114,51.515,106.04,51.515z"/>
		<path fill="#173A1D" d="M108.935,53.269c-0.794-0.349-1.033-0.454-1.033-0.888c0-0.446,0.355-0.649,0.685-0.649
			c0.658,0,0.804,0.401,0.874,0.595c0.045,0.135,0.057,0.172,0.122,0.172c0.074,0,0.148-0.029,0.148-0.094
			c0-0.042-0.008-0.109-0.025-0.217c-0.033-0.213-0.021-0.424-0.014-0.525c0.002-0.027,0.003-0.048,0.003-0.061
			c0-0.04,0-0.106-0.081-0.106c-0.033,0-0.051,0.006-0.073,0.014c-0.006,0.002-0.011,0.005-0.015,0.009
			c-0.005,0.005-0.007,0.007-0.021,0.007c-0.01,0-0.046-0.005-0.099-0.011c-0.057-0.007-0.132-0.016-0.218-0.025l-0.101-0.008
			c-0.142-0.011-0.303-0.023-0.427-0.023c-0.81,0-1.313,0.418-1.313,1.09c0,0.098,0,0.398,0.278,0.662
			c0.174,0.168,0.235,0.198,0.838,0.472c0.645,0.289,0.87,0.426,0.87,0.821c0,0.397-0.319,0.685-0.758,0.685
			c-0.965,0-1.12-0.63-1.145-0.824c-0.01-0.062-0.041-0.093-0.093-0.093c-0.094,0-0.16,0.056-0.16,0.136
			c0,0.236,0.059,0.69,0.081,0.86l0.005,0.037c0.017,0.11,0.023,0.156,0.116,0.156c0.044,0,0.07-0.021,0.088-0.036
			c0.016-0.013,0.023-0.018,0.039-0.018c0.034,0,0.097,0.01,0.177,0.022c0.177,0.027,0.445,0.069,0.782,0.069
			c0.634,0,0.927-0.163,1.092-0.285c0.24-0.178,0.384-0.477,0.384-0.798C109.942,53.707,109.36,53.454,108.935,53.269z"/>
	</g>
	<g>
		<path fill="#173A1D" d="M63.883,7.478c0.079-0.105,0.134-0.189,0.2-0.265c0.985-1.144,1.976-2.283,2.954-3.433
			c0.204-0.24,0.415-0.342,0.716-0.218c0.084,0.035,0.182,0.037,0.262,0.078c0.317,0.163,0.504,0.034,0.711-0.225
			c0.806-1.01,1.636-2,2.46-2.996c0.371-0.449,0.492-0.451,0.878-0.011c0.563,0.645,1.121,1.294,1.724,1.99
			c0.309-0.35,0.599-0.681,0.89-1.01c0.438-0.494,0.568-0.491,0.97,0.035c1.645,2.154,3.288,4.309,4.931,6.464
			c0.067,0.088,0.125,0.182,0.152,0.356c-0.131-0.026-0.267-0.038-0.392-0.081c-1.494-0.515-3.021-0.898-4.605-0.681
			c-1.137,0.156-2.262,0.435-3.377,0.718C71.168,8.5,69.986,8.812,68.758,8.87c-1.612,0.076-3.142-0.203-4.512-1.117
			C64.125,7.673,64.014,7.578,63.883,7.478z M71.529,0.913c-0.05,0.079-0.074,0.118-0.1,0.156c-0.681,0.988-1.359,1.978-2.045,2.963
			C69.274,4.19,69.3,4.286,69.44,4.404c0.16,0.134,0.299,0.292,0.448,0.439c-0.023,0.031-0.046,0.062-0.069,0.093
			c-0.107-0.024-0.215-0.043-0.32-0.074c-0.525-0.156-1.052-0.306-1.572-0.479c-0.216-0.072-0.345-0.036-0.492,0.147
			c-0.644,0.803-1.306,1.59-1.959,2.385c-0.062,0.076-0.115,0.16-0.168,0.236c0.489,0.516,0.528,0.516,0.966,0.046
			c0.236-0.254,0.474-0.505,0.711-0.757c0.033,0.02,0.067,0.04,0.1,0.059c-0.056,0.482-0.399,0.878-0.506,1.397
			c2.594,0.533,4.982-0.283,7.443-0.962c-0.189-0.347-0.37-0.659-0.531-0.981c-0.158-0.315-0.406-0.596-0.415-0.981
			c0.129,0.045,0.214,0.114,0.289,0.191c0.351,0.361,0.721,0.705,1.042,1.091c0.313,0.377,0.636,0.609,1.162,0.483
			c0.261-0.063,0.55-0.011,0.913-0.011C74.801,4.754,73.182,2.854,71.529,0.913z M74.375,2.981c0.04,0.063,0.06,0.104,0.088,0.138
			c0.919,1.124,1.839,2.248,2.759,3.37c0.043,0.052,0.089,0.122,0.147,0.139c0.614,0.188,1.232,0.367,1.951,0.579
			c-1.382-1.806-2.708-3.538-4.058-5.303C74.937,2.299,74.656,2.639,74.375,2.981z"/>
	</g>
</g>
</svg>
